<?xml version="1.0" standalone="no"?>
<!DOCTYPE svg PUBLIC "-//W3C//DTD SVG 20010904//EN"
 "http://www.w3.org/TR/2001/REC-SVG-20010904/DTD/svg10.dtd">
<svg version="1.0" xmlns="http://www.w3.org/2000/svg"
 width="500.000000pt" height="500.000000pt" viewBox="0 0 500.000000 500.000000"
 preserveAspectRatio="xMidYMid meet">

<g transform="translate(0.000000,500.000000) scale(0.100000,-0.100000)"
fill="#000000" stroke="none">
<path d="M2350 4944 c-19 -2 -87 -8 -150 -15 -192 -18 -306 -47 -625 -159 -52
-18 -205 -94 -312 -155 -281 -159 -577 -433 -772 -713 -171 -247 -290 -509
-372 -821 -80 -309 -86 -775 -13 -1107 22 -101 40 -157 118 -380 64 -184 246
-489 395 -664 69 -81 225 -237 311 -311 163 -140 462 -321 640 -386 389 -143
567 -177 930 -177 363 0 541 34 930 177 161 59 473 243 610 360 298 255 502
512 670 847 54 106 147 370 178 506 79 335 75 805 -8 1134 -47 183 -117 375
-185 507 -127 245 -222 383 -396 573 -157 171 -390 360 -558 452 -172 94 -265
140 -331 163 -221 77 -275 94 -358 114 -50 12 -144 28 -209 36 -117 15 -425
27 -493 19z m305 -1079 c81 -10 204 -44 259 -72 89 -45 204 -132 268 -204 167
-186 239 -389 225 -637 -3 -59 -11 -122 -16 -141 -10 -31 -9 -33 12 -26 111
34 139 38 192 26 29 -7 60 -20 69 -30 16 -17 19 -17 74 2 37 13 85 20 137 20
85 1 125 -12 125 -41 0 -10 -32 -49 -71 -87 -39 -39 -100 -108 -136 -155 -154
-198 -261 -294 -403 -364 -70 -34 -105 -45 -188 -56 -95 -12 -111 -12 -239 9
-75 13 -146 27 -157 33 -14 8 -45 6 -113 -7 -107 -20 -271 -16 -359 8 -47 13
-57 13 -105 -3 -30 -10 -107 -26 -172 -36 -109 -17 -124 -17 -224 -2 -83 13
-122 24 -181 54 -138 70 -208 132 -360 319 -59 72 -139 163 -180 204 -41 42
-72 81 -70 90 8 42 170 49 269 11 40 -15 50 -16 59 -4 7 7 34 20 62 30 62 20
119 14 196 -21 30 -14 56 -24 57 -23 2 2 -4 35 -12 73 -10 49 -13 109 -10 200
3 113 8 142 36 225 65 194 176 345 331 455 97 68 181 107 280 130 138 31 213
36 345 20z m1145 -565 c0 -13 -7 -20 -20 -20 -19 0 -27 20 -13 33 13 14 33 6
33 -13z m178 -1 c1 -8 -18 -30 -43 -49 l-46 -35 23 -19 c13 -10 34 -27 46 -37
37 -29 18 -39 -72 -39 l-82 0 -15 -32 c-12 -29 -19 -33 -58 -36 -32 -2 -42 0
-39 10 3 7 14 12 26 10 30 -4 36 13 42 108 4 67 8 85 20 85 11 0 16 -16 20
-60 l5 -60 53 -3 c28 -2 52 1 52 6 0 5 -13 19 -30 32 -16 13 -30 29 -30 36 0
8 23 30 50 51 28 20 50 41 50 46 0 14 25 2 28 -14z m92 -99 c0 -51 3 -60 18
-60 25 0 42 20 42 50 0 42 26 70 66 70 43 0 74 -29 74 -70 0 -45 -33 -72 -83
-69 -99 5 -112 1 -128 -33 -12 -28 -20 -34 -51 -36 -22 -2 -38 1 -38 7 0 6 9
11 20 11 29 0 40 31 40 114 0 69 2 76 20 76 18 0 20 -7 20 -60z m-2709 -1025
c158 -19 259 -48 259 -75 0 -29 -38 -35 -70 -12 -39 30 -119 42 -350 53 -221
11 -305 7 -530 -21 -200 -26 -280 -56 -280 -106 0 -55 130 -72 615 -78 437 -7
527 -20 564 -87 12 -21 12 -29 0 -54 -20 -41 -64 -63 -176 -88 -87 -18 -131
-21 -393 -21 -258 0 -313 3 -440 22 -165 26 -310 60 -310 73 0 14 50 11 155
-11 357 -73 940 -65 1096 16 61 31 11 75 -114 99 -47 9 -203 18 -414 25 -380
11 -444 15 -526 34 -61 14 -107 47 -107 77 0 40 49 77 133 103 78 24 211 51
287 59 100 11 486 6 601 -8z m2078 -64 c44 -44 35 -170 -19 -270 -34 -62 -30
-77 26 -111 41 -26 82 -23 148 10 65 34 96 69 96 107 0 42 12 42 32 -1 21 -42
76 -106 92 -106 15 0 66 61 90 108 28 55 56 33 56 -45 0 -29 2 -53 4 -53 17 0
163 65 172 76 15 18 24 18 24 -2 0 -10 -35 -32 -100 -61 -96 -44 -100 -48
-105 -82 -12 -77 -36 -166 -50 -188 -62 -93 -165 -44 -135 66 12 47 66 112
122 148 35 22 38 27 37 71 l0 47 -32 -39 c-18 -22 -44 -53 -59 -70 l-28 -31
-37 41 c-21 22 -43 49 -49 60 -11 18 -14 17 -56 -23 -102 -93 -197 -106 -271
-35 -16 15 -35 39 -43 55 -17 33 -9 34 -224 -35 -85 -27 -184 -52 -218 -55
-63 -6 -64 -6 -60 17 3 21 9 24 44 25 117 3 183 111 85 139 -96 28 -160 -94
-161 -306 0 -32 -4 -58 -8 -58 -25 0 -32 30 -32 140 0 63 -4 121 -8 128 -6 9
-16 4 -36 -19 -55 -62 -167 -89 -212 -51 -11 9 -37 41 -58 70 -21 29 -45 52
-56 52 -26 0 -64 -34 -100 -90 -18 -27 -36 -50 -40 -50 -5 0 -12 21 -15 48 -8
63 -21 92 -41 92 -29 0 -78 -45 -103 -94 -13 -25 -29 -46 -36 -46 -21 0 -35
24 -35 62 0 45 -8 47 -41 12 -82 -88 -236 -106 -302 -36 -48 52 -61 158 -19
150 11 -2 18 -15 20 -38 6 -78 35 -110 113 -125 47 -9 103 12 172 64 31 24 57
44 57 45 0 1 -4 16 -9 33 -6 21 -6 35 0 39 19 12 38 -18 44 -71 l7 -54 49 50
c44 45 53 50 86 47 34 -3 39 -7 53 -45 l15 -41 52 49 c49 47 75 58 98 41 6 -4
32 -37 57 -73 49 -70 62 -79 106 -79 62 0 177 87 169 128 -3 13 1 22 9 22 8 0
16 -18 20 -45 6 -45 7 -46 22 -23 8 13 29 37 45 55 51 55 150 55 191 0 18 -24
19 -32 8 -59 -6 -17 -11 -32 -9 -33 3 -3 230 51 250 60 15 6 18 15 13 39 -23
125 -19 197 15 240 25 32 79 36 108 7z m-1731 -139 c4 -28 -24 -41 -44 -20
-20 20 -7 50 20 46 13 -2 22 -12 24 -26z m-868 -502 c0 -13 7 -20 19 -20 21 0
31 -19 31 -56 0 -36 -18 -29 -22 9 -2 17 -7 32 -13 32 -5 0 -11 -15 -13 -32
-6 -57 -22 -36 -22 27 0 33 4 60 10 60 6 0 10 -9 10 -20z m167 -72 c-2 -18 -4
-4 -4 32 0 36 2 50 4 33 2 -18 2 -48 0 -65z m403 32 c0 -27 -4 -52 -10 -55 -6
-4 -10 17 -10 55 0 38 4 59 10 55 6 -3 10 -28 10 -55z m230 -1 c0 -37 -4 -58
-10 -54 -18 11 -12 115 7 115 2 0 3 -27 3 -61z m418 49 c8 -8 8 -17 1 -31 -8
-13 -8 -22 0 -30 8 -8 11 -8 11 1 0 7 4 12 9 12 4 0 8 -13 7 -28 -1 -26 -5
-29 -39 -30 -41 -2 -55 14 -41 46 4 9 6 23 5 30 -2 14 17 42 28 42 4 0 12 -5
19 -12z m283 -28 c19 -5 25 -13 27 -43 2 -21 -1 -37 -7 -37 -6 0 -11 16 -11
35 0 43 -27 49 -36 8 -11 -51 -12 -49 -13 17 0 41 3 58 8 45 4 -11 19 -22 32
-25z m469 -20 c0 -27 -4 -52 -10 -55 -6 -4 -10 17 -10 55 0 38 4 59 10 55 6
-3 10 -28 10 -55z m253 18 c17 -2 23 -11 25 -40 2 -22 -1 -38 -7 -38 -6 0 -11
16 -11 36 0 45 -24 42 -28 -4 -5 -49 -22 -27 -22 27 0 49 13 79 18 43 2 -12
12 -22 25 -24z m165 0 c21 -2 28 -9 30 -32 4 -31 -10 -46 -45 -46 -22 0 -23 4
-22 63 1 34 4 52 6 40 3 -15 13 -23 31 -25z m99 -50 c-2 -18 -4 -4 -4 32 0 36
2 50 4 33 2 -18 2 -48 0 -65z m-2732 52 c0 -16 -8 -28 -22 -35 -12 -5 -24 -19
-26 -30 -2 -11 -5 6 -6 38 -1 58 -1 58 27 55 21 -2 27 -8 27 -28z m625 20 c0
-5 -2 -10 -4 -10 -3 0 -8 5 -11 10 -3 6 -1 10 4 10 6 0 11 -4 11 -10z m303 -5
c4 -8 2 -17 -3 -20 -6 -4 -5 -13 2 -25 15 -24 -5 -50 -38 -50 -22 0 -24 4 -24
55 0 54 1 55 29 55 16 0 31 -6 34 -15z m672 -40 c0 -49 -1 -50 -32 -53 l-33
-3 0 56 0 56 33 -3 c31 -3 32 -4 32 -53z m365 51 c0 -3 -4 -8 -10 -11 -5 -3
-10 -1 -10 4 0 6 5 11 10 11 6 0 10 -2 10 -4z m363 -9 c3 -8 1 -20 -3 -27 -5
-7 -4 -24 1 -37 11 -30 11 -33 -1 -33 -5 0 -10 6 -10 14 0 7 -7 19 -15 26 -13
11 -15 8 -15 -14 0 -14 -4 -26 -10 -26 -5 0 -10 25 -10 55 0 54 1 55 29 55 16
0 31 -6 34 -13z m377 9 c0 -3 -4 -8 -10 -11 -5 -3 -10 -1 -10 4 0 6 5 11 10
11 6 0 10 -2 10 -4z m116 -21 c9 -8 11 -15 5 -15 -15 0 -14 -57 2 -64 6 -3 3
-5 -8 -3 -14 2 -22 12 -25 37 -6 34 -3 60 7 60 2 0 11 -7 19 -15z m125 -13
c-15 -5 -14 -45 1 -60 9 -9 8 -12 -4 -12 -11 0 -17 12 -20 43 -6 51 -1 62 19
45 10 -8 11 -14 4 -16z m-2893 1 c-22 -6 -23 -12 -1 -28 22 -16 10 -45 -19
-44 l-23 0 24 10 23 9 -23 18 c-26 21 -18 43 14 41 17 -1 18 -2 5 -6z m49 -15
l10 -23 7 23 c4 12 11 22 17 22 5 0 0 -23 -11 -50 -11 -28 -20 -53 -20 -55 0
-3 -7 -5 -16 -5 -14 0 -14 1 0 16 14 14 14 19 1 51 -17 41 -18 43 -7 43 5 0
13 -10 19 -22z m93 13 c-16 -4 -25 -14 -25 -26 0 -11 11 -25 25 -32 l25 -13
-27 0 c-34 0 -54 31 -38 60 7 13 20 20 38 19 l27 -1 -25 -7z m185 -25 c0 -36
-27 -56 -52 -40 -40 25 -20 77 26 72 21 -2 26 -8 26 -32z m123 0 c5 -45 -47
-65 -68 -26 -16 31 4 62 38 58 21 -2 28 -9 30 -32z m80 -18 c-3 -51 -4 -53
-33 -55 -18 -1 -22 1 -10 4 31 8 42 23 17 23 -12 0 -26 9 -32 20 -15 28 4 60
36 60 24 0 25 -2 22 -52z m41 10 c-1 -41 -1 -42 -11 -15 -5 15 -7 34 -4 42 10
27 16 16 15 -27z m64 32 c-14 -6 -23 -18 -23 -30 0 -12 9 -24 23 -30 21 -8 21
-9 2 -9 -27 -1 -45 17 -45 44 0 28 8 35 39 34 26 0 26 0 4 -9z m85 -33 c3 -37
2 -38 -25 -35 -35 4 -45 37 -14 45 26 7 27 20 4 27 -11 3 -7 4 7 3 21 -2 25
-8 28 -40z m232 4 c0 -35 -2 -38 -27 -37 -35 1 -45 35 -14 43 26 7 27 20 4 26
-11 3 -7 5 10 6 25 1 27 -2 27 -38z m114 23 c3 -9 6 -27 6 -40 0 -20 -5 -24
-29 -24 -17 0 -32 4 -35 9 -10 16 5 40 27 44 21 3 21 4 -3 15 l-25 11 26 0
c16 1 29 -6 33 -15z m83 -29 l1 -40 -6 35 c-4 22 -13 35 -22 35 -9 0 -17 -13
-21 -35 -6 -35 -6 -35 -8 8 -1 42 0 43 27 40 24 -3 27 -7 29 -43z m66 38 c-23
-4 -37 -28 -27 -45 3 -5 16 -14 28 -19 18 -8 17 -8 -9 -6 -23 1 -31 7 -33 25
-6 37 5 52 35 51 22 -1 24 -3 6 -6z m87 -13 c0 -13 -7 -20 -20 -20 -27 0 -25
-18 3 -30 20 -9 19 -9 -8 -7 -23 1 -31 7 -33 25 -5 36 5 52 33 52 18 0 25 -5
25 -20z m328 -2 c3 -14 -3 -18 -23 -18 -30 0 -25 -16 9 -31 18 -8 17 -8 -9 -6
-23 1 -31 7 -33 25 -2 13 -1 30 2 38 8 21 50 14 54 -8z m160 -20 c3 -35 1 -38
-22 -38 -14 0 -27 4 -30 9 -9 14 4 41 20 41 20 0 17 18 -3 24 -11 3 -7 4 7 3
21 -2 25 -8 28 -39z m38 17 c8 -31 22 -33 26 -3 2 12 8 23 15 25 8 3 7 -8 -4
-36 -9 -23 -20 -41 -25 -41 -4 0 -8 2 -8 4 0 2 -7 20 -15 40 -9 20 -11 36 -5
36 5 0 12 -11 16 -25z m84 -15 c0 -22 -4 -40 -10 -40 -5 0 -10 18 -10 40 0 22
5 40 10 40 6 0 10 -18 10 -40z m80 20 c16 -31 -4 -62 -38 -58 -28 3 -40 32
-28 64 8 21 54 17 66 -6z m52 8 c-7 -7 -12 -25 -12 -40 0 -15 -4 -28 -10 -28
-5 0 -10 18 -10 40 0 35 3 40 22 40 17 0 19 -3 10 -12z m72 -4 c3 -9 6 -27 6
-40 0 -22 -4 -25 -27 -22 -35 4 -45 37 -14 45 26 7 27 20 4 26 -14 4 -13 5 3
6 12 0 25 -6 28 -15z m244 -6 c3 -13 -3 -18 -22 -18 -32 0 -34 -17 -3 -30 15
-6 17 -9 5 -9 -32 -2 -48 11 -48 38 0 15 3 31 7 35 13 13 58 1 61 -16z m160
-20 c3 -36 2 -38 -27 -38 -16 0 -32 4 -35 9 -10 16 5 41 25 41 26 0 24 18 -3
23 -16 4 -13 5 7 4 27 -2 30 -6 33 -39z m119 -20 c-2 -13 -4 -3 -4 22 0 25 2
35 4 23 2 -13 2 -33 0 -45z m70 0 c-2 -13 -4 -3 -4 22 0 25 2 35 4 23 2 -13 2
-33 0 -45z m141 20 c3 -36 2 -38 -26 -38 -17 0 -32 6 -35 14 -6 16 11 36 30
36 22 0 14 18 -9 23 -16 4 -13 5 7 4 27 -2 30 -6 33 -39z m79 -20 c-2 -13 -4
-3 -4 22 0 25 2 35 4 23 2 -13 2 -33 0 -45z m93 27 c0 -39 -21 -55 -49 -38
-36 23 -19 73 25 73 21 0 24 -5 24 -35z m88 -7 c2 -22 -1 -38 -7 -38 -6 0 -11
16 -11 35 0 24 -5 35 -15 35 -10 0 -15 -11 -15 -35 0 -19 -4 -35 -10 -35 -5 0
-10 18 -10 41 0 39 1 40 33 37 29 -3 32 -6 35 -40z"/>
<path d="M2483 3833 c26 -2 68 -2 95 0 26 2 4 3 -48 3 -52 0 -74 -1 -47 -3z"/>
<path d="M2308 3813 c7 -3 16 -2 19 1 4 3 -2 6 -13 5 -11 0 -14 -3 -6 -6z"/>
<path d="M2735 3810 c4 -6 10 -8 15 -5 11 7 50 -34 50 -51 0 -7 6 -15 13 -17
10 -4 10 -6 0 -6 -9 -1 -13 -18 -13 -50 0 -28 -5 -53 -10 -56 -8 -5 -7 -11 0
-21 26 -31 6 -37 -140 -39 -129 -1 -153 -5 -220 -29 -135 -48 -178 -79 -240
-176 -29 -45 -63 -155 -74 -240 -5 -34 -16 -55 -45 -85 -35 -37 -61 -75 -61
-90 0 -3 14 -19 31 -35 29 -26 30 -30 20 -61 -13 -41 -12 -120 1 -136 11 -14
13 -72 3 -140 -6 -47 -5 -52 22 -73 27 -21 34 -22 162 -17 131 4 135 4 158
-19 13 -13 43 -63 66 -112 22 -48 43 -90 45 -94 2 -5 -6 -8 -18 -8 -12 0 -31
-5 -42 -11 -17 -9 -18 -13 -7 -20 10 -6 11 -9 2 -9 -24 0 -28 -2 -45 -17 -10
-8 -24 -13 -33 -10 -8 4 -15 2 -15 -3 0 -14 36 -12 52 3 18 17 48 18 41 1 -3
-8 -9 -11 -14 -8 -5 3 -9 0 -9 -5 0 -20 205 -17 296 4 43 10 62 10 96 0 183
-55 299 -65 421 -36 183 44 295 130 525 406 55 66 120 140 146 164 53 52 48
61 -34 61 -75 0 -161 -23 -242 -65 -74 -37 -86 -31 -37 18 29 29 30 32 13 44
-29 21 -109 15 -182 -13 -37 -15 -71 -30 -76 -35 -17 -15 -27 -10 -18 9 39 74
40 388 2 522 -34 118 -130 271 -225 359 -60 55 -195 142 -208 134 -5 -3 -7 -2
-4 4 6 10 -32 30 -112 58 -51 18 -65 19 -56 5z m-66 -315 c25 -30 47 -53 49
-50 3 2 -14 27 -38 55 l-42 50 32 0 c31 0 146 -26 164 -37 9 -6 -60 -73 -75
-73 -5 0 -9 -5 -9 -11 0 -7 14 -8 40 -4 44 7 71 -2 49 -16 -12 -8 -11 -11 1
-19 24 -15 -5 -12 -47 5 -66 28 -69 17 -17 -56 21 -28 38 -62 40 -76 3 -25 14
-46 14 -25 0 18 40 14 47 -4 3 -9 1 -19 -5 -23 -7 -4 -10 -16 -8 -27 3 -14 -2
-20 -16 -21 -18 -2 -19 -1 -4 10 15 11 15 15 3 31 -14 19 -17 17 -72 -35 -65
-62 -100 -107 -90 -117 4 -4 43 -6 88 -4 91 3 91 -2 2 -46 -59 -30 -185 -53
-185 -35 0 5 14 21 31 36 18 15 29 31 25 34 -3 4 -23 -10 -44 -30 -41 -40 -56
-44 -97 -25 -26 12 -75 92 -75 122 0 21 -57 66 -117 92 -30 14 -53 30 -53 39
0 8 -4 15 -9 15 -23 0 -22 61 2 113 21 46 89 117 111 117 4 0 19 8 33 18 29
19 150 50 198 51 24 0 38 -10 74 -54z m185 -360 c-7 -16 -24 -21 -24 -6 0 8 7
13 27 20 1 1 0 -6 -3 -14z m-126 -55 c-7 -10 -14 -17 -17 -15 -4 4 18 35 25
35 2 0 -1 -9 -8 -20z m239 4 c8 -20 -8 -36 -26 -25 -15 10 -8 41 9 41 6 0 13
-7 17 -16z m-90 -169 c15 -13 24 -25 18 -25 -6 0 -9 -25 -7 -60 4 -72 -4 -75
-69 -28 -24 17 -64 35 -89 40 -47 8 -90 46 -90 81 0 15 12 17 104 17 97 0 107
-2 133 -25z"/>
<path d="M2440 3426 c0 -2 8 -10 18 -17 15 -13 16 -12 3 4 -13 16 -21 21 -21
13z"/>
<path d="M2683 3419 c-13 -5 -23 -6 -23 -2 0 3 -6 1 -12 -4 -7 -6 -35 -16 -61
-23 -26 -7 -46 -15 -43 -17 5 -6 149 29 160 38 15 13 3 18 -21 8z"/>
<path d="M2547 3176 c82 -99 102 -121 103 -110 0 6 -34 46 -76 90 -62 65 -67
68 -27 20z"/>
<path d="M2235 3791 c-22 -11 -35 -19 -30 -19 14 -1 93 36 80 37 -5 0 -28 -8
-50 -18z"/>
<path d="M2165 3760 c-3 -6 1 -7 9 -4 18 7 21 14 7 14 -6 0 -13 -4 -16 -10z"/>
<path d="M1431 2770 l-23 -10 36 -37 c48 -49 45 -59 -6 -29 -95 55 -259 91
-332 72 -25 -6 -25 -6 27 -59 62 -61 92 -96 172 -197 200 -252 382 -371 593
-386 42 -4 100 -2 127 4 173 36 211 45 221 58 8 10 19 11 45 4 62 -18 55 -9
-11 14 -94 33 -205 90 -259 133 -99 80 -200 206 -241 300 -12 29 -26 50 -31
47 -5 -3 -21 4 -35 15 -79 62 -220 97 -283 71z"/>
<path d="M4171 3212 c-12 -23 -4 -59 15 -66 16 -6 44 19 44 39 0 44 -40 62
-59 27z"/>
<path d="M3352 2057 c-7 -18 -12 -56 -12 -84 0 -55 19 -153 30 -153 3 0 17 21
29 48 28 55 40 167 22 200 -18 35 -55 28 -69 -11z"/>
<path d="M3873 1663 c-25 -17 -49 -44 -62 -70 -24 -51 -26 -72 -8 -98 19 -25
62 -13 81 23 16 30 40 144 35 161 -2 6 -22 -1 -46 -16z"/>
<path d="M2030 1454 c0 -8 5 -12 10 -9 6 3 10 10 10 16 0 5 -4 9 -10 9 -5 0
-10 -7 -10 -16z"/>
<path d="M2016 1412 c-7 -12 22 -38 31 -28 4 3 0 14 -9 22 -9 10 -18 12 -22 6z"/>
<path d="M3204 1425 c-8 -21 3 -48 19 -43 19 7 22 58 2 58 -8 0 -18 -7 -21
-15z"/>
<path d="M550 1450 c0 -11 7 -20 15 -20 8 0 15 9 15 20 0 11 -7 20 -15 20 -8
0 -15 -9 -15 -20z"/>
<path d="M1480 1455 c0 -9 5 -15 11 -13 6 2 11 8 11 13 0 5 -5 11 -11 13 -6 2
-11 -4 -11 -13z"/>
<path d="M1480 1399 c0 -24 23 -21 28 4 2 10 -3 17 -12 17 -10 0 -16 -9 -16
-21z"/>
<path d="M2150 1455 c0 -8 7 -15 15 -15 8 0 15 7 15 15 0 8 -7 15 -15 15 -8 0
-15 -7 -15 -15z"/>
<path d="M2150 1400 c0 -11 4 -20 9 -20 13 0 32 26 24 33 -13 14 -33 6 -33
-13z"/>
<path d="M2880 1450 c0 -13 5 -20 13 -17 6 2 12 10 12 17 0 7 -6 15 -12 18 -8
2 -13 -5 -13 -18z"/>
<path d="M924 1426 c-8 -22 3 -49 19 -43 6 2 12 14 12 27 0 27 -22 39 -31 16z"/>
<path d="M1045 1430 c-9 -15 5 -52 18 -47 19 6 21 57 3 57 -8 0 -18 -5 -21
-10z"/>
<path d="M1134 1425 c-7 -18 14 -47 27 -39 5 3 9 16 9 30 0 27 -27 34 -36 9z"/>
<path d="M1330 1394 c0 -8 5 -12 10 -9 6 3 10 10 10 16 0 5 -4 9 -10 9 -5 0
-10 -7 -10 -16z"/>
<path d="M1560 1394 c0 -9 5 -14 12 -12 18 6 21 28 4 28 -9 0 -16 -7 -16 -16z"/>
<path d="M1670 1394 c0 -9 5 -14 12 -12 18 6 21 28 4 28 -9 0 -16 -7 -16 -16z"/>
<path d="M1910 1430 c0 -5 7 -10 15 -10 8 0 15 5 15 10 0 6 -7 10 -15 10 -8 0
-15 -4 -15 -10z"/>
<path d="M2240 1430 c0 -5 5 -10 10 -10 6 0 10 5 10 10 0 6 -4 10 -10 10 -5 0
-10 -4 -10 -10z"/>
<path d="M2406 1401 c-4 -7 -5 -15 -2 -18 9 -9 19 4 14 18 -4 11 -6 11 -12 0z"/>
<path d="M2586 1423 c-4 -9 -1 -23 7 -30 12 -12 16 -12 26 1 16 19 8 46 -13
46 -7 0 -17 -8 -20 -17z"/>
<path d="M2730 1394 c0 -8 5 -12 10 -9 6 3 10 10 10 16 0 5 -4 9 -10 9 -5 0
-10 -7 -10 -16z"/>
<path d="M2960 1430 c0 -5 7 -10 15 -10 8 0 15 5 15 10 0 6 -7 10 -15 10 -8 0
-15 -4 -15 -10z"/>
<path d="M3125 1401 c-6 -11 9 -23 19 -14 9 9 7 23 -3 23 -6 0 -12 -4 -16 -9z"/>
<path d="M3455 1401 c-6 -11 9 -23 19 -14 9 9 7 23 -3 23 -6 0 -12 -4 -16 -9z"/>
<path d="M3624 1426 c-8 -22 3 -49 19 -43 6 2 12 14 12 27 0 27 -22 39 -31 16z"/>
</g>
</svg>
